<svg xmlns="http://www.w3.org/2000/svg" width="674" height="502.211" viewBox="0 0 674 502.211">
  <g id="Mobile_payments-rafiki" data-name="Mobile payments-rafiki" transform="translate(0 -55)">
    <g id="freepik--background-complete--inject-152" transform="translate(0 55)">
      <rect id="Rectangle_81" data-name="Rectangle 81" width="674" height="0.337" transform="translate(0 441.335)" fill="#ebebeb"/>
      <rect id="Rectangle_82" data-name="Rectangle 82" width="20.085" height="0.337" transform="translate(586.38 463.025)" fill="#ebebeb"/>
      <rect id="Rectangle_83" data-name="Rectangle 83" width="11.714" height="0.337" transform="translate(434.77 466.691)" fill="#ebebeb"/>
      <rect id="Rectangle_84" data-name="Rectangle 84" width="46.088" height="0.337" transform="translate(534.603 450.515)" fill="#ebebeb"/>
      <rect id="Rectangle_85" data-name="Rectangle 85" width="58.22" height="0.337" transform="translate(89.561 457.471)" fill="#ebebeb"/>
      <rect id="Rectangle_86" data-name="Rectangle 86" width="21.002" height="0.337" transform="translate(159.778 457.471)" fill="#ebebeb"/>
      <rect id="Rectangle_87" data-name="Rectangle 87" width="126.281" height="0.337" transform="translate(217.136 452.941)" fill="#ebebeb"/>
      <path id="Path_168" data-name="Path 168" d="M306.179,436.214H45.894a7.7,7.7,0,0,1-7.684-7.7V62.63A7.7,7.7,0,0,1,45.894,55H306.179a7.7,7.7,0,0,1,7.7,7.7v365.82A7.7,7.7,0,0,1,306.179,436.214ZM45.894,55.27a7.36,7.36,0,0,0-7.347,7.36V428.517a7.36,7.36,0,0,0,7.347,7.36H306.179a7.374,7.374,0,0,0,7.36-7.36V62.63a7.374,7.374,0,0,0-7.36-7.36Z" transform="translate(13.297 -55)" fill="#ebebeb"/>
      <path id="Path_169" data-name="Path 169" d="M522.5,436.214H262.2a7.711,7.711,0,0,1-7.7-7.7V62.63A7.711,7.711,0,0,1,262.2,55H522.5a7.7,7.7,0,0,1,7.67,7.63V428.517A7.7,7.7,0,0,1,522.5,436.214ZM262.2,55.27a7.374,7.374,0,0,0-7.36,7.36V428.517a7.374,7.374,0,0,0,7.36,7.36H522.5a7.374,7.374,0,0,0,7.36-7.36V62.63a7.373,7.373,0,0,0-7.36-7.36Z" transform="translate(88.566 -55)" fill="#ebebeb"/>
      <rect id="Rectangle_88" data-name="Rectangle 88" width="10.649" height="72.927" transform="translate(309.231 431.495) rotate(180)" fill="#f0f0f0"/>
      <rect id="Rectangle_89" data-name="Rectangle 89" width="219.023" height="9.84" transform="translate(302.208 441.335) rotate(180)" fill="#f0f0f0"/>
      <rect id="Rectangle_90" data-name="Rectangle 90" width="222.433" height="72.927" transform="translate(76.149 358.568)" fill="#f5f5f5"/>
      <rect id="Rectangle_91" data-name="Rectangle 91" width="193.654" height="41.653" transform="translate(90.532 371.266)" fill="#f0f0f0"/>
      <rect id="Rectangle_92" data-name="Rectangle 92" width="100.615" height="6.983" rx="2.37" transform="translate(237.679 376.833) rotate(180)" fill="#f5f5f5"/>
      <rect id="Rectangle_93" data-name="Rectangle 93" width="227.313" height="6.511" transform="translate(298.582 358.568) rotate(180)" fill="#f0f0f0"/>
      <rect id="Rectangle_94" data-name="Rectangle 94" width="15.758" height="6.511" transform="translate(298.582 352.057)" fill="#e6e6e6"/>
      <rect id="Rectangle_95" data-name="Rectangle 95" width="285.008" height="218.578" transform="translate(575.461 255.864) rotate(180)" fill="#e6e6e6"/>
      <path id="Path_170" data-name="Path 170" d="M196.32,76.35H524.127a2.467,2.467,0,0,1,2.467,2.467h0a2.467,2.467,0,0,1-2.467,2.453H196.32a2.467,2.467,0,0,1-2.48-2.467h0A2.467,2.467,0,0,1,196.32,76.35Z" transform="translate(67.456 -47.57)" fill="#e6e6e6"/>
      <rect id="Rectangle_96" data-name="Rectangle 96" width="290.642" height="218.578" transform="translate(570.528 255.864) rotate(180)" fill="#f0f0f0"/>
      <path id="Path_171" data-name="Path 171" d="M217.349,244.81H502.357v7H210.07Z" transform="translate(73.104 11.054)" fill="#e6e6e6"/>
      <path id="Path_172" data-name="Path 172" d="M196.446,244.81H487.088l-7.279,7H189.18Z" transform="translate(65.835 11.054)" fill="#f0f0f0"/>
      <rect id="Rectangle_97" data-name="Rectangle 97" width="189.003" height="261.054" transform="translate(555.727 52.073) rotate(90)" fill="#fafafa"/>
      <path id="Path_173" data-name="Path 173" d="M380.63,282.62l-86.8-188.99H252.84l86.811,188.99Z" transform="translate(87.988 -41.557)" fill="#fff"/>
      <path id="Path_174" data-name="Path 174" d="M337.245,282.62,250.434,93.63H234.46l86.811,188.99Z" transform="translate(81.592 -41.557)" fill="#fff"/>
      <rect id="Rectangle_98" data-name="Rectangle 98" width="189.003" height="1.874" transform="translate(296.56 52.073) rotate(90)" fill="#e6e6e6"/>
      <g id="Group_28" data-name="Group 28" transform="translate(504.651 24.345)" opacity="0.4">
        <rect id="Rectangle_99" data-name="Rectangle 99" width="25.45" height="180.376" transform="translate(76.364 180.376) rotate(180)" fill="#f0f0f0"/>
        <rect id="Rectangle_100" data-name="Rectangle 100" width="19.829" height="180.376" transform="translate(60.822 180.376) rotate(180)" fill="#e6e6e6"/>
        <rect id="Rectangle_101" data-name="Rectangle 101" width="25.45" height="180.376" transform="translate(50.914 180.376) rotate(180)" fill="#f0f0f0"/>
        <rect id="Rectangle_102" data-name="Rectangle 102" width="19.829" height="180.376" transform="translate(35.372 180.376) rotate(180)" fill="#e6e6e6"/>
        <rect id="Rectangle_103" data-name="Rectangle 103" width="25.45" height="180.376" transform="translate(25.45 180.376) rotate(180)" fill="#f0f0f0"/>
      </g>
      <g id="Group_29" data-name="Group 29" transform="translate(274.817 24.345)" opacity="0.4">
        <rect id="Rectangle_104" data-name="Rectangle 104" width="14.666" height="180.376" transform="translate(44.012 180.376) rotate(180)" fill="#f0f0f0"/>
        <rect id="Rectangle_105" data-name="Rectangle 105" width="11.431" height="180.376" transform="translate(35.048 180.376) rotate(180)" fill="#e6e6e6"/>
        <rect id="Rectangle_106" data-name="Rectangle 106" width="14.666" height="180.376" transform="translate(29.332 180.376) rotate(180)" fill="#f0f0f0"/>
        <rect id="Rectangle_107" data-name="Rectangle 107" width="11.431" height="180.376" transform="translate(20.382 180.376) rotate(180)" fill="#e6e6e6"/>
        <rect id="Rectangle_108" data-name="Rectangle 108" width="14.666" height="180.376" transform="translate(14.666 180.376) rotate(180)" fill="#f0f0f0"/>
      </g>
      <rect id="Rectangle_109" data-name="Rectangle 109" width="117.101" height="299.202" transform="translate(94.805 24.466)" fill="#f5f5f5"/>
      <rect id="Rectangle_110" data-name="Rectangle 110" width="3.208" height="299.202" transform="translate(215.127 323.655) rotate(180)" fill="#e0e0e0"/>
      <rect id="Rectangle_111" data-name="Rectangle 111" width="277.513" height="95.411" transform="translate(201.054 35.304) rotate(90)" fill="#fff"/>
      <path id="Path_175" data-name="Path 175" d="M103.29,358.7,134.955,81.19H153.22L121.569,358.7Z" transform="translate(35.945 -45.886)" fill="#fafafa"/>
      <path id="Path_176" data-name="Path 176" d="M91.55,358.7,123.2,81.19h9.139L100.689,358.7Z" transform="translate(31.859 -45.886)" fill="#fafafa"/>
    </g>
    <g id="freepik--Shadow--inject-152" transform="translate(75.636 526.692)">
      <ellipse id="freepik--path--inject-152" cx="261.364" cy="15.259" rx="261.364" ry="15.259" fill="#f5f5f5"/>
    </g>
    <g id="freepik--Device--inject-152" transform="translate(360.758 170.106)">
      <path id="Path_177" data-name="Path 177" d="M442.819,511.018H285.372a15.8,15.8,0,0,1-15.92-17.039l21.972-333.05a18.521,18.521,0,0,1,18.158-17.039H467.015a15.8,15.8,0,0,1,15.906,17.039l-21.945,333.05A18.521,18.521,0,0,1,442.819,511.018Z" transform="translate(-267.005 -139.172)" fill="#263238"/>
      <path id="Path_178" data-name="Path 178" d="M428.556,219.883H409.495a3.815,3.815,0,0,1-3.842-4.111l1.9-28.847a4.475,4.475,0,0,1,4.394-4.044H431a3.815,3.815,0,0,1,3.842,4.044l-1.9,28.847A4.462,4.462,0,0,1,428.556,219.883Z" transform="translate(-219.595 -125.603)" fill="#263238"/>
      <rect id="Rectangle_112" data-name="Rectangle 112" width="6.969" height="1.348" transform="translate(76.816)" fill="#370c50"/>
      <rect id="Rectangle_113" data-name="Rectangle 113" width="25.342" height="1.348" transform="translate(42.887)" fill="#370c50"/>
      <path id="Path_179" data-name="Path 179" d="M441.039,511.018H283.592a15.812,15.812,0,0,1-15.92-17.039L289.7,160.929a18.521,18.521,0,0,1,18.158-17.039H465.3a15.8,15.8,0,0,1,15.812,17.039L459.2,493.979A18.521,18.521,0,0,1,441.039,511.018Z" transform="translate(-267.625 -139.172)" fill="#363636"/>
      <path id="Path_180" data-name="Path 180" d="M446.914,467.312H280.342a8.978,8.978,0,0,1-9.045-9.679l19.128-289.955A10.515,10.515,0,0,1,300.7,158H467.31a8.978,8.978,0,0,1,9.045,9.679L457.227,457.634A10.515,10.515,0,0,1,446.914,467.312Z" transform="translate(-266.356 -134.262)" fill="#fff"/>
      <path id="Path_181" data-name="Path 181" d="M407.748,158h-33.08L294.53,467.312h33.08Z" transform="translate(-258.261 -134.262)" fill="#fafafa"/>
      <path id="Path_182" data-name="Path 182" d="M425.1,158h-16.54L328.42,467.312h16.54Z" transform="translate(-246.468 -134.262)" fill="#fafafa"/>
      <path id="Path_183" data-name="Path 183" d="M422.475,354.19,386.51,218.163a14.141,14.141,0,0,0-17.254-10.043L284.17,230.6,272.82,408.352l139.612-36.895A14.167,14.167,0,0,0,422.475,354.19Z" transform="translate(-265.816 -116.982)" fill="#f0f0f0"/>
      <ellipse id="Ellipse_98" data-name="Ellipse 98" cx="10.892" cy="10.191" rx="10.892" ry="10.191" transform="matrix(0.719, -0.695, 0.695, 0.719, 81.295, 349)" fill="#fff" opacity="0.2"/>
      <path id="Path_184" data-name="Path 184" d="M360.878,151.664a4.731,4.731,0,0,1-4.651,4.354,4.044,4.044,0,0,1-4.044-4.354,4.718,4.718,0,0,1,4.651-4.354,4.044,4.044,0,0,1,4.044,4.354Z" transform="translate(-238.202 -137.982)" fill="#fff" opacity="0.2"/>
      <path id="Path_185" data-name="Path 185" d="M358.407,151.16a2.588,2.588,0,0,1-2.548,2.4,2.211,2.211,0,0,1-2.238-2.4,2.588,2.588,0,0,1,2.548-2.4,2.211,2.211,0,0,1,2.238,2.4Z" transform="translate(-237.7 -137.477)" fill="#fff" opacity="0.2"/>
    </g>
    <g id="freepik--Character--inject-152" transform="translate(127.315 135.52)">
      <path id="Path_186" data-name="Path 186" d="M182.941,146.178c5.028-12.361,3.222-27.418-11.04-30.788A20.773,20.773,0,0,0,145.965,136.4c.566,13.48,9.436,24.709-6.106,34.482s-13.884,39.227,16.176,33.538,13.817-21.15,13.817-21.15-7.374,6.012-9.746-.108C157.1,175.241,177.117,160.642,182.941,146.178Z" transform="translate(-82.013 -114.733)" fill="#263238"/>
      <path id="Path_187" data-name="Path 187" d="M130.251,183l-.661-.148c2.009-8.991,5.163-11.31,8.492-13.763s6.484-4.785,9.032-13.628c1.2-4.165.445-8.775-.3-13.224-.944-5.675-1.914-11.552,1.011-16.81l.58.337c-2.8,5.042-1.847,10.784-.93,16.365.755,4.529,1.537,9.207.283,13.48-2.6,9.059-6,11.552-9.274,13.979S132.205,174.268,130.251,183Z" transform="translate(-82.218 -111.01)" fill="#263238"/>
      <path id="Path_188" data-name="Path 188" d="M200.8,188.43c.094.458.256,1.146.4,1.766l.472,1.9c.324,1.281.687,2.561,1.065,3.842.768,2.548,1.591,5.122,2.48,7.657a161.764,161.764,0,0,0,6.093,15l1.7,3.545a5.393,5.393,0,0,0,1.2,1.685,11.108,11.108,0,0,0,5.244,2.319,47.679,47.679,0,0,0,15.219,0l1.82,5.729a42.9,42.9,0,0,1-4.273,1.618,44.1,44.1,0,0,1-4.394,1.213,35.521,35.521,0,0,1-9.436.876,20.058,20.058,0,0,1-10.474-3.3,15.26,15.26,0,0,1-4.341-4.61l-.216-.337-.135-.229-.27-.485-.553-.944-1.092-1.914a132.656,132.656,0,0,1-7.414-15.933c-1.025-2.7-2.035-5.513-2.858-8.358-.4-1.348-.809-2.844-1.173-4.3s-.687-2.831-.984-4.556Z" transform="translate(-61.585 -89.086)" fill="#ffc3bd"/>
      <path id="Path_189" data-name="Path 189" d="M192.806,174.665c13.6,6.066,13.48,26.448,13.48,26.448l-14.329,8.614s-10.784-15.96-9.975-23.213C182.776,178.951,185.1,171.254,192.806,174.665Z" transform="translate(-64.001 -94.166)" fill="#f66363"/>
      <path id="Path_190" data-name="Path 190" d="M194.169,187.718c-3.72-3.761-7,.58-9.989,5.392a104.927,104.927,0,0,0,7,12.307l5.877-3.532C198.213,197.4,197.876,191.492,194.169,187.718Z" transform="translate(-63.221 -89.83)" opacity="0.2"/>
      <path id="Path_191" data-name="Path 191" d="M222.374,218.022l9.571-4.772.108,12.523s-7.144,1.24-11.9-3.774Z" transform="translate(-50.703 -80.449)" fill="#ffc3bd"/>
      <path id="Path_192" data-name="Path 192" d="M239.185,215.474l-1.645,9.3-8.533,1L228.9,213.25Z" transform="translate(-47.658 -80.449)" fill="#ffc3bd"/>
      <path id="Path_193" data-name="Path 193" d="M156.81,415.97l11.835,1.132,5.513-27.54-11.835-1.132Z" transform="translate(-72.746 -19.486)" fill="#ffc3bd"/>
      <path id="Path_194" data-name="Path 194" d="M99.24,390.791l9.625,7.01,16.055-22.781-9.638-7.01Z" transform="translate(-92.78 -26.592)" fill="#ffc3bd"/>
      <path id="Path_195" data-name="Path 195" d="M114.064,389.767l-7.926-10.851a.944.944,0,0,0-1.227-.3l-9.5,5.042a1.928,1.928,0,0,0-.58,2.817c2.831,3.734,4.381,5.392,7.872,10.177,2.157,2.939,6.47,9.746,9.436,13.8s7.131,1.348,6.268-.607c-3.909-8.776-4.044-13.911-3.747-18.023a3.074,3.074,0,0,0-.593-2.062Z" transform="translate(-94.448 -22.939)" fill="#263238"/>
      <path id="Path_196" data-name="Path 196" d="M171.521,407.05H157.313a1.159,1.159,0,0,0-1.119.863l-3.087,11.2a1.766,1.766,0,0,0,1.725,2.251h32.729c5.19,0,6.268-5.244,4.125-5.729-9.625-2.13-15.178-5.069-18.158-7.872A2.911,2.911,0,0,0,171.521,407.05Z" transform="translate(-74.058 -13.007)" fill="#263238"/>
      <path id="Path_197" data-name="Path 197" d="M173.529,389.572l-2.844,14.194H158.62l3.073-15.327Z" transform="translate(-72.116 -19.482)" opacity="0.2"/>
      <path id="Path_198" data-name="Path 198" d="M113.277,368.01l9.638,7.023-8.277,11.741L105,379.751Z" transform="translate(-90.775 -26.592)" opacity="0.2"/>
      <path id="Path_199" data-name="Path 199" d="M210.252,186.65c-.836,9.1-3.855,26.96-12.685,61.86l-48.447-4.192c2.332-18.185,3.424-29.966-1.132-64.394a8.371,8.371,0,0,1,7.791-9.436c3.491-.189,7.643-.31,11.808-.148a155.176,155.176,0,0,1,22,1.9c4.273.768,8.829,1.874,12.536,2.844A10.946,10.946,0,0,1,210.252,186.65Z" transform="translate(-75.84 -95.408)" fill="#79787a"/>
      <path id="Path_200" data-name="Path 200" d="M148.89,185.94c.62,5.392,1.078,10.2,1.348,14.518,4.462-.391,7.751-5.284,8.088-15.515C156.654,180,152.678,181.788,148.89,185.94Z" transform="translate(-75.502 -91.341)" opacity="0.2"/>
      <path id="Path_201" data-name="Path 201" d="M194.79,229.09s16.392,72.522,5.392,123.652c-7.32,34.239-23.617,103.4-23.617,103.4l-20.665-.526s9.867-72.59,14.006-101.1c7.077-48.825-10.649-128.451-10.649-128.451Z" transform="translate(-73.062 -75.987)" fill="#263238"/>
      <path id="Path_202" data-name="Path 202" d="M173.4,239.18l-10.339,16.3a499.983,499.983,0,0,1,5.918,58.368C183.509,287.829,176.621,252.943,173.4,239.18Z" transform="translate(-70.571 -71.425)" opacity="0.2"/>
      <path id="Path_203" data-name="Path 203" d="M180.021,399.742,154.49,399.1l1.483-7.845,26.043,1.227Z" transform="translate(-73.553 -18.504)" fill="#370c50"/>
      <path id="Path_204" data-name="Path 204" d="M201.518,228.624s-9.611,76.9-30.465,118.894c-16.837,33.916-52.06,87.822-52.06,87.822L106.12,425.028s22.026-59.622,34.536-82.147c30.694-55.268,5.608-97.393,23.01-117.68Z" transform="translate(-90.386 -76.29)" fill="#263238"/>
      <rect id="Rectangle_114" data-name="Rectangle 114" width="276.785" height="168.945" rx="10.48" transform="translate(70.581 185.638) rotate(-22.79)" fill="#363636"/>
      <rect id="Rectangle_116" data-name="Rectangle 116" width="62.251" height="38" rx="5.04" transform="translate(95.681 195.874) rotate(-22.79)" fill="#fff" opacity="0.2"/>
      <rect id="Rectangle_117" data-name="Rectangle 117" width="52.774" height="13.709" rx="1.89" transform="translate(131.983 282.814) rotate(-22.79)" fill="#fff" opacity="0.4"/>
      <rect id="Rectangle_118" data-name="Rectangle 118" width="52.774" height="13.709" rx="1.89" transform="translate(189.173 258.792) rotate(-22.79)" fill="#fff" opacity="0.4"/>
      <rect id="Rectangle_119" data-name="Rectangle 119" width="52.774" height="13.709" rx="1.89" transform="translate(246.349 234.771) rotate(-22.79)" fill="#fff" opacity="0.4"/>
      <rect id="Rectangle_120" data-name="Rectangle 120" width="52.774" height="13.709" rx="1.89" transform="translate(303.539 210.749) rotate(-22.79)" fill="#fff" opacity="0.4"/>
      <g id="Group_30" data-name="Group 30" transform="translate(256.066 105.409)" opacity="0.6">
        <circle id="Ellipse_99" data-name="Ellipse 99" cx="19.007" cy="19.007" r="19.007" transform="translate(26.783 8.726) rotate(-13.27)" fill="#263238"/>
        <circle id="Ellipse_100" data-name="Ellipse 100" cx="19.007" cy="19.007" r="19.007" transform="matrix(0.6, -0.8, 0.8, 0.6, 0, 36.301)" fill="#fff"/>
      </g>
      <path id="Path_205" data-name="Path 205" d="M120.933,387.248l-16.513-12.5,4.057-7.252,17.551,13.615Z" transform="translate(-90.977 -26.769)" fill="#370c50"/>
      <path id="Path_206" data-name="Path 206" d="M149.125,223.129l-2.561,4.152c-.2.31.175.7.728.741l50.82,4.394c.431,0,.809-.148.863-.418l.809-4.3c.067-.3-.3-.58-.768-.62l-49.067-4.246A.9.9,0,0,0,149.125,223.129Z" transform="translate(-76.33 -77.118)" fill="#f66363"/>
      <path id="Path_208" data-name="Path 208" d="M153.457,229.163l-1.348-.108c-.256,0-.445-.175-.418-.337l1.105-5.581c0-.175.27-.283.539-.256l1.348.108c.27,0,.458.175.418.337L154,228.907A.515.515,0,0,1,153.457,229.163Z" transform="translate(-74.528 -77.098)" fill="#370c50"/>
      <path id="Path_209" data-name="Path 209" d="M182.457,231.675l-1.348-.108c-.256,0-.445-.175-.418-.337l1.105-5.581a.485.485,0,0,1,.539-.256l1.348.108c.27,0,.458.175.418.337L183,231.419C182.982,231.607,182.74,231.7,182.457,231.675Z" transform="translate(-64.436 -76.227)" fill="#370c50"/>
      <path id="Path_210" data-name="Path 210" d="M167.957,230.426l-1.348-.121c-.27,0-.458-.175-.418-.337l1.105-5.581c0-.162.27-.283.526-.256l1.348.121c.256,0,.445.175.418.337l-1.105,5.581C168.456,230.332,168.227,230.44,167.957,230.426Z" transform="translate(-69.483 -76.663)" fill="#370c50"/>
      <path id="Path_211" data-name="Path 211" d="M112.231,392.483a1.348,1.348,0,0,1-.458,0c-1.469-.3-2.7-2.79-3.343-4.246a.229.229,0,0,1,0-.256.2.2,0,0,1,.243,0c.458.162,4.475,1.712,4.785,3.181a.876.876,0,0,1-.3.876,1.658,1.658,0,0,1-.93.445Zm-3.141-3.936c.917,2.009,1.941,3.289,2.777,3.451a1.132,1.132,0,0,0,1.024-.377.431.431,0,0,0,.162-.445c-.189-.9-2.575-2.062-3.963-2.629Z" transform="translate(-89.595 -19.656)" fill="#407bff"/>
      <path id="Path_212" data-name="Path 212" d="M112.347,389.2a8.413,8.413,0,0,1-3.8-.4.237.237,0,0,1-.04-.4c.121-.081,2.9-2.1,4.57-1.725a1.429,1.429,0,0,1,.984.714.957.957,0,0,1,0,1.186A2.7,2.7,0,0,1,112.347,389.2Zm-3.141-.715c1.348.391,3.869.418,4.489-.27.108-.108.2-.283,0-.634a.944.944,0,0,0-.661-.485C111.9,386.864,109.961,387.983,109.206,388.482Z" transform="translate(-89.589 -20.117)" fill="#407bff"/>
      <path id="Path_213" data-name="Path 213" d="M172.47,409.5a19.794,19.794,0,0,1-3.882-.485.243.243,0,0,1,0-.445c.593-.283,5.742-2.7,7.037-1.779a.741.741,0,0,1,.337.728,1.685,1.685,0,0,1-.7,1.348A4.584,4.584,0,0,1,172.47,409.5Zm-3.073-.809c1.537.283,4.368.661,5.527-.216a1.348,1.348,0,0,0,.512-.984c0-.189,0-.27-.121-.31C174.586,406.685,171.54,407.75,169.4,408.694Z" transform="translate(-68.698 -13.167)" fill="#407bff"/>
      <path id="Path_214" data-name="Path 214" d="M168.651,409.741a.2.2,0,0,1-.148,0,.216.216,0,0,1-.081-.229c0-.229,1.213-5.311,4.044-4.988.7.094.89.431.93.714.175,1.348-3.073,3.909-4.637,4.543Zm3.532-4.812c-1.793,0-2.831,2.966-3.181,4.152,1.685-.89,4.044-3.006,3.9-3.828,0-.067,0-.256-.526-.31Z" transform="translate(-68.707 -13.89)" fill="#407bff"/>
      <path id="Path_215" data-name="Path 215" d="M159.5,187.025l-.714,1.011L158,189.182c-.526.782-1.051,1.577-1.55,2.4-1.025,1.618-1.955,3.3-2.9,4.988a88.5,88.5,0,0,0-4.907,10.5,89.909,89.909,0,0,0-3.545,10.986l-.634,2.7c0-.081-.081.2.067.714a15.164,15.164,0,0,0,2.009,4.044,66.055,66.055,0,0,0,7.306,8.776c2.7,2.858,5.689,5.621,8.668,8.371s6.106,5.392,9.234,7.994,6.322,5.23,9.436,7.765l-3.37,4.974a221.622,221.622,0,0,1-20.88-14.046c-3.37-2.534-6.673-5.2-9.867-8.088a68.669,68.669,0,0,1-9.126-9.719,23.861,23.861,0,0,1-3.774-6.888,12.362,12.362,0,0,1-.58-5.392v-.58l.067-.4.135-.822.283-1.631a88.314,88.314,0,0,1,3.343-12.793,101.1,101.1,0,0,1,5.244-12.132c1.011-1.968,2.116-3.869,3.3-5.742.58-.944,1.186-1.874,1.82-2.8l1-1.348c.35-.472.647-.89,1.119-1.469Z" transform="translate(-80.854 -92.183)" fill="#ffc3bd"/>
      <path id="Path_216" data-name="Path 216" d="M156.591,171.095c-9.247,2.426-18.171,24.844-18.171,24.844l11.97,10.946s18.8-17.147,18.171-24.884C168.036,175.422,164.019,169.126,156.591,171.095Z" transform="translate(-79.145 -95.246)" fill="#f66363"/>
      <path id="Path_217" data-name="Path 217" d="M163.845,170a23.537,23.537,0,0,1-5.149.472c-.364,6.659,3.909,13.089,14.41,21.716,2.521-7.859,8.088-9.557,8.088-9.557Z" transform="translate(-72.097 -95.5)" opacity="0.2"/>
      <path id="Path_218" data-name="Path 218" d="M180.041,171.57s1.227.175,4.152.849c1.955,3.006,4.489,12.267-1.267,18.872-2.238-8.088-7.576-9.112-7.576-9.112Z" transform="translate(-66.294 -94.953)" opacity="0.2"/>
      <path id="Path_219" data-name="Path 219" d="M164.142,170h-5.985c-1.955,3.006,4.772,11.337,15.259,19.964,2.521-7.859,8.088-7.387,8.088-7.387Z" transform="translate(-72.394 -95.5)" fill="#fff"/>
      <path id="Path_220" data-name="Path 220" d="M180.041,171.57s1.227.175,4.152.849c1.955,3.006,6.174,11.148.418,17.7-2.238-8.088-9.261-7.98-9.261-7.98Z" transform="translate(-66.294 -94.953)" fill="#fff"/>
      <path id="Path_221" data-name="Path 221" d="M166.837,152.05c.782,7.2,1.038,20.22-4.327,24.588,0,0,2.79,8.088,17.308,12.294,8.735-5.042,4.691-10.393,4.691-10.393-7.724-2.561-7.01-8.4-5.163-13.79Z" transform="translate(-70.762 -101.746)" fill="#ffc3bd"/>
      <path id="Path_222" data-name="Path 222" d="M169.744,155.9l7.414,7.508a22.513,22.513,0,0,0-1.024,3.842c-2.979-.687-7.293-3.788-7.333-6.969A12.819,12.819,0,0,1,169.744,155.9Z" transform="translate(-68.573 -100.406)" opacity="0.2"/>
      <path id="Path_223" data-name="Path 223" d="M178.312,130.94c2.359-2.6,7.037.714,8.762,7.09,2.588,9.436-4.314,10.11-7.926,5.392S176.344,133.11,178.312,130.94Z" transform="translate(-65.846 -109.402)" fill="#263238"/>
      <path id="Path_224" data-name="Path 224" d="M183.3,143.1a26.3,26.3,0,0,1,6.646,3.424C188.773,143.662,187.721,141.923,183.3,143.1Z" transform="translate(-63.527 -104.991)" fill="#263238"/>
      <path id="Path_225" data-name="Path 225" d="M184.31,143.759a20.745,20.745,0,0,1,5.823-.324C188.219,141.966,186.831,141.238,184.31,143.759Z" transform="translate(-63.175 -105.21)" fill="#263238"/>
      <path id="Path_226" data-name="Path 226" d="M161.152,149c3.006,11.5,4.044,16.432,11.081,21.244,10.609,7.252,24.075,1.051,24.574-11.121.445-10.946-4.543-27.9-16.85-30.3a16.176,16.176,0,0,0-18.8,20.18Z" transform="translate(-71.44 -109.942)" fill="#ffc3bd"/>
      <path id="Path_227" data-name="Path 227" d="M168.579,134.9l-3.33,3.869a5.769,5.769,0,0,1-8.088.593h0a5.769,5.769,0,0,1-.607-8.088l3.33-3.855a5.783,5.783,0,0,1,8.088-.607h0a5.783,5.783,0,0,1,.607,8.088Z" transform="translate(-73.312 -111.005)" fill="#fff"/>
      <path id="Path_228" data-name="Path 228" d="M171.04,139.077,167,141.1a7,7,0,0,1-9.342-3.168h0a7.01,7.01,0,0,1,3.168-9.355l4.044-2.022a7.01,7.01,0,0,1,9.355,3.181h0A7,7,0,0,1,171.04,139.077Z" transform="translate(-72.701 -110.867)" fill="#f66363"/>
      <path id="Path_229" data-name="Path 229" d="M166.218,158.532s8.3-1.9,4.772-14.046a3.181,3.181,0,0,1,2.993-4.044c9.355-.256,18.1-2.211,16.863-7.63-1.55-6.848-24.857-12.132-29.09,1.577C153.492,136.317,153.182,152.6,166.218,158.532Z" transform="translate(-73.054 -110.87)" fill="#263238"/>
      <path id="Path_230" data-name="Path 230" d="M163.59,148.4a26.3,26.3,0,0,1,6.646,3.424C169.063,149,168.011,147.256,163.59,148.4Z" transform="translate(-70.386 -103.14)" fill="#263238"/>
      <path id="Path_231" data-name="Path 231" d="M164.6,149.085a20.744,20.744,0,0,1,5.823-.324C168.523,147.319,167.134,146.578,164.6,149.085Z" transform="translate(-70.035 -103.351)" fill="#263238"/>
      <path id="Path_232" data-name="Path 232" d="M159.747,151.94a8.7,8.7,0,0,0,5.109,4.233c2.925.876,4.435-1.712,3.68-4.5-.687-2.507-3.033-5.972-5.985-5.635a3.909,3.909,0,0,0-2.8,5.9Z" transform="translate(-71.922 -103.847)" fill="#ffc3bd"/>
      <path id="Path_233" data-name="Path 233" d="M175.473,143.925c.189.944.849,1.618,1.456,1.5s.971-1,.8-1.941-.849-1.618-1.469-1.5S175.284,142.968,175.473,143.925Z" transform="translate(-66.268 -105.254)" fill="#263238"/>
      <path id="Path_234" data-name="Path 234" d="M183.423,142.351c.189.957.836,1.618,1.456,1.5s.971-.984.782-1.928-.836-1.618-1.456-1.5S183.234,141.408,183.423,142.351Z" transform="translate(-63.502 -105.797)" fill="#263238"/>
      <path id="Path_235" data-name="Path 235" d="M183.8,140.785l2.143-1.105S185.121,141.689,183.8,140.785Z" transform="translate(-63.353 -106.051)" fill="#263238"/>
      <path id="Path_236" data-name="Path 236" d="M180.68,143.61A25.8,25.8,0,0,0,185.25,149a4.152,4.152,0,0,1-3.262,1.348Z" transform="translate(-64.439 -104.683)" fill="#ed847e"/>
      <path id="Path_237" data-name="Path 237" d="M179.81,152.557a7.818,7.818,0,0,1-5.392-2.062.238.238,0,0,1,.337-.337,7.684,7.684,0,0,0,6.74,1.739.233.233,0,0,1,.081.458,8.3,8.3,0,0,1-1.766.2Z" transform="translate(-66.642 -102.428)" fill="#263238"/>
      <path id="Path_238" data-name="Path 238" d="M170.812,141.57a.552.552,0,0,1-.243-.067.472.472,0,0,1-.162-.647,5.513,5.513,0,0,1,4.273-2.7.485.485,0,0,1,.485.458.472.472,0,0,1-.458.485,4.583,4.583,0,0,0-3.491,2.305A.472.472,0,0,1,170.812,141.57Z" transform="translate(-68.037 -106.58)" fill="#263238"/>
      <path id="Path_239" data-name="Path 239" d="M186.951,138.3a.444.444,0,0,1-.229,0,4.651,4.651,0,0,0-4.192-.27.506.506,0,0,1-.458-.9,5.5,5.5,0,0,1,5.082.283.458.458,0,0,1,.175.634.445.445,0,0,1-.377.256Z" transform="translate(-64.051 -107.11)" fill="#263238"/>
      <path id="Path_240" data-name="Path 240" d="M166.5,236.56l10.784.755-4.866,11.525s-9-2.844-9.369-9.436Z" transform="translate(-70.574 -72.337)" fill="#ffc3bd"/>
      <path id="Path_241" data-name="Path 241" d="M179,243.644l-5.217,7.872-3.774-2.871L174.9,237.12Z" transform="translate(-68.152 -72.142)" fill="#ffc3bd"/>
      <path id="Path_242" data-name="Path 242" d="M175.85,142.345l2.143-1.105S177.171,143.249,175.85,142.345Z" transform="translate(-66.12 -105.508)" fill="#263238"/>
    </g>
  </g>
</svg>
