 <svg xmlns="http://www.w3.org/2000/svg" xmlns:xlink="http://www.w3.org/1999/xlink" width="642.149" height="486.374" viewBox="0 0 642.149 486.374">
  <defs>
    <filter id="Path_2456" x="29.188" y="89.304" width="66.27" height="66.27" filterUnits="userSpaceOnUse">
      <feOffset dy="3" input="SourceAlpha"/>
      <feGaussianBlur stdDeviation="3" result="blur"/>
      <feFlood flood-opacity="0.161"/>
      <feComposite operator="in" in2="blur"/>
      <feComposite in="SourceGraphic"/>
    </filter>
  </defs>
  <g id="Group_245" data-name="Group 245" transform="translate(-184.851 -1689.096)">
    <g id="freepik--Clouds--inject-188" transform="translate(300.688 1773.712)">
      <g id="freepik--clouds--inject-188-2" data-name="freepik--clouds--inject-188" transform="translate(0 0)">
        <path id="freepik--Cloud--inject-188" d="M157.445,137.186l-4.772,2.758a4.768,4.768,0,0,0,0-.63V137.93c0-2.462-1.728-3.455-3.818-2.224a7.512,7.512,0,0,0-2.3,2.2c-.344-3.092-2.777-4.247-5.727-2.539a12.732,12.732,0,0,0-5.727,9.993v2.023a5.535,5.535,0,0,0,.487,2.4l-3.961,2.291a4.772,4.772,0,0,0-2.138,3.7c0,1.365.954,1.909,2.138,1.241l25.855-14.927a4.772,4.772,0,0,0,2.138-3.7C159.564,137.062,158.609,136.508,157.445,137.186Z" transform="translate(-129.49 -134.581)" fill="#ebebeb"/>
        <path id="freepik--cloud--inject-188-2" data-name="freepik--cloud--inject-188" d="M178.569,150.1l-3.5,2.023a4.036,4.036,0,0,0,0-.468v-1.012c0-1.8-1.269-2.539-2.863-1.632a5.421,5.421,0,0,0-1.68,1.622c-.258-2.272-2.033-3.111-4.2-1.909a9.353,9.353,0,0,0-4.228,7.33v1.518a3.99,3.99,0,0,0,.353,1.756l-2.863,1.68a3.436,3.436,0,0,0-1.565,2.711c0,1,.7,1.4,1.565.907l18.983-10.89a3.436,3.436,0,0,0,1.565-2.711C180.134,150,179.437,149.6,178.569,150.1Z" transform="translate(-130.79 -135.201)" fill="#ebebeb"/>
      </g>
    </g>
    <g id="freepik--device--inject-188" transform="translate(184.851 1782.308)">
      <g id="freepik--device--inject-188-2" data-name="freepik--device--inject-188" transform="translate(0 0)">
        <path id="Path_4481" data-name="Path 4481" d="M632.965,372.641c3.012,2.333,2.687,5.657-.962,7.736L432.336,495.66a16.121,16.121,0,0,1-14.523,0L36.241,275.346c-3.705-2.135-4-5.487-.863-7.806A16.15,16.15,0,0,0,29,279.5v9.6a15.98,15.98,0,0,0,7.269,12.586L417.785,522.035a16.05,16.05,0,0,0,14.538,0L631.99,406.78a15.994,15.994,0,0,0,7.255-12.572v-9.616a16.235,16.235,0,0,0-6.279-11.95Z" transform="translate(-29 -149.968)" fill="#3f5864" opacity="0.24"/>
        <path id="Path_4482" data-name="Path 4482" d="M630.765,406.439,249.179,186.125a16.164,16.164,0,0,0-14.524,0L35,301.408c-4.016,2.305-4.016,6.067,0,8.372L416.574,530.094a16.121,16.121,0,0,0,14.524,0L630.765,414.811C634.767,412.506,634.767,408.687,630.765,406.439Z" transform="translate(-27.762 -184.402)" fill="#b3b3b3" opacity="0.08"/>
        <path id="Path_4483" data-name="Path 4483" d="M35.378,267.54A16.15,16.15,0,0,0,29,279.5v9.6a16.008,16.008,0,0,0,7.269,12.586L417.785,522.035a14.905,14.905,0,0,0,7.283,1.739V497.386a14.961,14.961,0,0,1-7.269-1.725L36.241,275.346C32.535,273.211,32.238,269.859,35.378,267.54Z" transform="translate(-29 -149.968)" fill="#3f3f3f" opacity="0.08"/>
        <path id="Path_4484" data-name="Path 4484" d="M105.752,242.124c2.036-1.174,2.036-3.083,0-4.243a8.089,8.089,0,0,0-7.382,0c-2.051,1.174-2.051,3.083,0,4.243A8.174,8.174,0,0,0,105.752,242.124Z" transform="translate(-0.906 -162.621)" opacity="0.08"/>
        <path id="Path_4485" data-name="Path 4485" d="M112.28,242.079l28.5-16.447c1.711-.976,1.8-2.531.2-3.451a6.632,6.632,0,0,0-5.968.113l-28.5,16.461c-1.7.976-1.782,2.517-.2,3.436a6.59,6.59,0,0,0,5.968-.113Z" transform="translate(2.551 -169.025)" opacity="0.08"/>
        <path id="Path_4486" data-name="Path 4486" d="M253.194,198.422c-3.422-1.98-7.071-.834-10.437,1.16L56.086,307.256c-3.436,1.98-3.451,5.19,0,7.184l338.68,195.58a13.8,13.8,0,0,0,12.459,0L593.9,402.331c3.451-1.98,3.436-5.2,0-7.184Z" transform="translate(-18.851 -179.021)" fill="#ba68c8"/>
        <path id="Path_4487" data-name="Path 4487" d="M253.194,198.422c-3.422-1.98-7.071-.834-10.437,1.16L56.086,307.256c-3.436,1.98-3.451,5.19,0,7.184l338.68,195.58a13.8,13.8,0,0,0,12.459,0L593.9,402.331c3.451-1.98,3.436-5.2,0-7.184Z" transform="translate(-18.851 -179.021)" fill="#fff" opacity="0.96"/>
      </g>
    </g>
    <g id="Group_208" data-name="Group 208" transform="translate(227.275 1805.752)" opacity="0.4">
      <path id="Path_4488" data-name="Path 4488" d="M314.692,430.747l70.341-40.587-11.808-3.408A143.143,143.143,0,0,0,262,400.314h0Z" transform="translate(25.077 -126.36)" fill="#a7a7a7"/>
      <path id="Path_4489" data-name="Path 4489" d="M359.525,412.212l105.031-60.64L394.258,311,352.78,410.275Z" transform="translate(62.676 -155.413)" fill="#a7a7a7"/>
      <path id="Path_4490" data-name="Path 4490" d="M406.6,308.708,365.592,411.5c-24.239-7.693-45.989-8.867-70.893-4.582l39.6-97.493,57.529-9.249Z" transform="translate(38.621 -159.894)" fill="#a7a7a7"/>
      <path id="Path_4491" data-name="Path 4491" d="M315.84,392.681l14.368-35.354L218.588,344.09,199.85,364.935l77.78,44.914a159.365,159.365,0,0,1,38.211-17.168Z" transform="translate(-0.664 -141.707)" fill="#a7a7a7"/>
      <path id="Path_4492" data-name="Path 4492" d="M335.836,282.41l34.93,20.124-46.116,7.453Z" transform="translate(51.025 -167.254)" fill="#a7a7a7"/>
      <ellipse id="Ellipse_210" data-name="Ellipse 210" cx="12.431" cy="7.17" rx="12.431" ry="7.17" transform="translate(151.599 117.97)" fill="#a7a7a7"/>
      <path id="Path_4493" data-name="Path 4493" d="M364.587,313.2,191.93,292.74c-1.824,4.158-4.935,5.091-12.19,6.675l48.167,55.153,114.831,13.491Z" transform="translate(-8.993 -162.975)" fill="#a7a7a7"/>
      <path id="Path_4494" data-name="Path 4494" d="M281.1,273.393l-12.728,30.758-78.4-9.305a17.89,17.89,0,0,0-6.731-4.341L194,263.07Z" transform="translate(-7.543 -175.264)" fill="#a7a7a7"/>
      <path id="Path_4495" data-name="Path 4495" d="M352.219,279.906l-13.477,33.247-85.982-10.2,13.505-33.247Z" transform="translate(21.25 -172.514)" fill="#a7a7a7"/>
      <path id="Path_4496" data-name="Path 4496" d="M360.625,294.41,218.2,212.19,193.54,274.6Z" transform="translate(-3.277 -196.337)" fill="#a7a7a7"/>
      <path id="Path_4497" data-name="Path 4497" d="M187.48,297.462l52.593,60.145-18.738,20.788L119.67,319.707,182.36,295.1a23.814,23.814,0,0,0,5.119,2.362Z" transform="translate(-33.872 -161.998)" fill="#a7a7a7"/>
      <path id="Path_4498" data-name="Path 4498" d="M215.572,277.869l26.36-66.749-17.578-10.14L112.38,265.622Z" transform="translate(-36.891 -200.98)" fill="#a7a7a7"/>
      <path id="Path_4499" data-name="Path 4499" d="M119.5,252.7,59,287.786l76.153,43.967,67.173-26.473c-.141-3.224,1.414-6.321,6.335-9.206,4.045-2.333,9.093-3.21,14.679-3.337l10.479-26.742Z" transform="translate(-59 -179.559)" fill="#a7a7a7"/>
    </g>
    <path id="Path_4801" data-name="Path 4801" d="M452.481,441.8a.96.96,0,0,1-.325-.071c-.184-.1-19.2-9.645-48.45-10.988s-43.189,4.242-43.33,4.242a.721.721,0,0,1-.933-.933l43.005-106.289L301.9,316.041a.721.721,0,0,1-.58-.99l15.938-39.427L113.814,251.469a.693.693,0,0,1-.622-.792.721.721,0,0,1,.792-.636l204.39,24.31a.676.676,0,0,1,.523.99l-15.952,39.441,100.548,11.724a.735.735,0,0,1,.537.339.749.749,0,0,1,0,.65L361.267,433.148c4.37-1.414,18.017-4.95,42.425-3.832,29.57,1.343,48.846,11.03,49.044,11.13a.707.707,0,0,1,.311.962.721.721,0,0,1-.566.4Z" transform="translate(190.717 1625.091)" fill="#e62222"/>
    <g id="freepik--Arrow--inject-188" transform="translate(702.358 2110.139)" opacity="0.27">
      <g id="freepik--arrow--inject-188-2" data-name="freepik--arrow--inject-188" transform="translate(0 0)">
        <path id="Path_4819" data-name="Path 4819" d="M498.031,449.294h0v-12.4L405.36,415.58v12.388h0a1.767,1.767,0,0,0,.424,1.018l36.076,50.6c.891,1.245,1.853,1.032,2.135-.467l4.568-23.744a3.748,3.748,0,0,1,3.281-2.828l45-2.828C497.635,449.563,498.017,449.449,498.031,449.294Z" transform="translate(-405.294 -415.066)" fill="#716f72"/>
        <path id="Path_4821" data-name="Path 4821" d="M431.74,474.2c.608.283,1.146-.113,1.344-1.174l4.568-23.744a3.592,3.592,0,0,1,.749-1.527V430.32l-6.661,9.758Z" transform="translate(-394.368 -408.961)" opacity="0.2"/>
        <path id="Path_4822" data-name="Path 4822" d="M444.029,466.867l4.568-23.673a3.748,3.748,0,0,1,3.281-2.828l45.013-2.828c1.513-.1,1.541-.467,0-.82l-90.055-21.411c-1.485-.354-1.966.368-1.075,1.612l36.076,50.6C442.784,468.649,443.746,468.366,444.029,466.867Z" transform="translate(-405.314 -415.216)" fill="#929092"/>
      </g>
    </g>
    <g id="Group_211" data-name="Group 211" transform="translate(223.038 1784.399)">
      <g transform="matrix(1, 0, 0, 1, -38.19, -95.3)" filter="url(#Path_2456)">
        <path id="Path_2456-2" data-name="Path 2456" d="M4.671,0H43.6A4.671,4.671,0,0,1,48.27,4.671V43.6A4.671,4.671,0,0,1,43.6,48.27H4.671A4.671,4.671,0,0,1,0,43.6V4.671A4.671,4.671,0,0,1,4.671,0Z" transform="translate(38.19 95.3)" fill="#363636"/>
      </g>
      <g id="Icons" transform="translate(11.773 11.471)">
        <g id="Group_86" data-name="Group 86" transform="translate(0 0)">
          <path id="Path_2442" data-name="Path 2442" d="M26.639,27.85a2.774,2.774,0,0,0-2.412-.663l-5.97,1.025a2.834,2.834,0,0,0-.844-1.99L13.131,22H4.206a1.206,1.206,0,1,0,0,2.412h7.96l3.558,3.558a.482.482,0,0,1,0,.663.543.543,0,0,1-.724,0L12.89,26.523A1.215,1.215,0,1,0,11.2,28.272l2.111,2.05a2.714,2.714,0,0,0,2.05.844,3.437,3.437,0,0,0,1.085-.181h0l8.2-1.447a.6.6,0,0,1,.482.121.663.663,0,0,1,.181.422.6.6,0,0,1-.482.6l-11.217,2.05L7.04,27.367H4.206a1.206,1.206,0,1,0,0,2.412H6.2l6.694,5.488,12.362-2.231a2.955,2.955,0,0,0,2.472-2.955,2.774,2.774,0,0,0-1.085-2.231Z" transform="translate(-3 -9.939)" fill="#fff"/>
          <path id="Path_2443" data-name="Path 2443" d="M31.393,12.915h0a4.04,4.04,0,0,1-2.472-.784,1.206,1.206,0,0,0-1.689.362,1.085,1.085,0,0,0,.181,1.568,6.573,6.573,0,0,0,2.593,1.085v1.327a1.206,1.206,0,1,0,2.412,0V15.146a3.8,3.8,0,0,0,1.809-.784,2.955,2.955,0,0,0,1.206-2.412h0c0-2.231-2.05-2.955-3.8-3.317s-2.111-.784-2.111-1.085.121-.362.3-.543a2.05,2.05,0,0,1,1.085-.241,3.8,3.8,0,0,1,1.99.543,1.085,1.085,0,0,0,1.628-.3,1.146,1.146,0,0,0-.241-1.689,5.488,5.488,0,0,0-1.869-.724V3.206a1.206,1.206,0,0,0-2.412,0V4.533a3.248,3.248,0,0,0-3.015,3.136c0,1.628,1.99,2.955,3.92,3.317s1.99.784,1.99,1.085S32.238,12.915,31.393,12.915Z" transform="translate(-12.518 -2)" fill="#fff"/>
        </g>
      </g>
    </g>
    <g id="Group_212" data-name="Group 212" transform="translate(611.731 1875.128)">
      <path id="Path_2458" data-name="Path 2458" d="M4.671,0H43.6A4.671,4.671,0,0,1,48.27,4.671V43.6A4.671,4.671,0,0,1,43.6,48.27H4.671A4.671,4.671,0,0,1,0,43.6V4.671A4.671,4.671,0,0,1,4.671,0Z" transform="translate(0 0)" fill="#363636"/>
      <g id="Layer_2" data-name="Layer 2" transform="translate(11.432 11.432)">
        <g id="invisible_box" data-name="invisible box">
          <rect id="Rectangle_218" data-name="Rectangle 218" width="26.153" height="26.153" fill="none"/>
        </g>
        <g id="Q3_icons" data-name="Q3 icons" transform="translate(1.14 1.085)">
          <path id="Path_2444" data-name="Path 2444" d="M24.943,4.776V8.538a1.091,1.091,0,0,1-1.091,1.091H20.035a1.091,1.091,0,0,1-1.091-1.254,1.145,1.145,0,0,1,1.145-.927h1.254A9.815,9.815,0,0,0,4.277,13.01a1.091,1.091,0,0,1-1.091.981h0a1.091,1.091,0,0,1-1.091-1.2A12,12,0,0,1,22.761,5.757V4.721a1.091,1.091,0,0,1,1.254-1.091,1.145,1.145,0,0,1,.927,1.145Z" transform="translate(-2.09 -1.989)" fill="#fff"/>
          <path id="Path_2445" data-name="Path 2445" d="M4,33.215V29.453A1.091,1.091,0,0,1,5.09,28.362H8.907A1.091,1.091,0,0,1,10,29.616a1.145,1.145,0,0,1-1.145.927H7.6a9.815,9.815,0,0,0,17.067-5.562A1.091,1.091,0,0,1,25.756,24h0a1.091,1.091,0,0,1,1.091,1.2A12,12,0,0,1,6.181,32.234V33.27A1.091,1.091,0,0,1,4.927,34.36,1.145,1.145,0,0,1,4,33.215Z" transform="translate(-2.958 -11.998)" fill="#fff"/>
          <path id="Path_2446" data-name="Path 2446" d="M21.189,17c-1.908-.382-1.908-.709-1.908-.981s.109-.327.273-.491a1.854,1.854,0,0,1,.981-.218,3.435,3.435,0,0,1,1.8.491.982.982,0,0,0,1.472-.273A1.036,1.036,0,0,0,23.588,14a4.962,4.962,0,0,0-1.69-.654V12.091a1.091,1.091,0,1,0-2.181,0v1.2a2.937,2.937,0,0,0-2.726,2.835c0,1.472,1.8,2.672,3.544,3s1.8.709,1.8.982-.6.763-1.363.763h0a3.653,3.653,0,0,1-2.236-.709,1.091,1.091,0,0,0-1.527.327.982.982,0,0,0,.164,1.418,5.943,5.943,0,0,0,2.345.981v1.2a1.091,1.091,0,1,0,2.181,0v-1.2a3.435,3.435,0,0,0,1.636-.709A2.672,2.672,0,0,0,24.624,20h0C24.624,17.98,22.77,17.325,21.189,17Z" transform="translate(-8.86 -6.087)" fill="#fff"/>
        </g>
      </g>
    </g>
    <g id="Group_213" data-name="Group 213" transform="translate(711.23 1980.327)">
      <path id="Path_2461" data-name="Path 2461" d="M4.671,0H43.6A4.671,4.671,0,0,1,48.27,4.671V43.6A4.671,4.671,0,0,1,43.6,48.27H4.671A4.671,4.671,0,0,1,0,43.6V4.671A4.671,4.671,0,0,1,4.671,0Z" transform="translate(0 0)" fill="#363636"/>
      <g id="Layer_2-2" data-name="Layer 2" transform="translate(12.553 12.553)">
        <g id="invisible_box-2" data-name="invisible box">
          <rect id="Rectangle_219" data-name="Rectangle 219" width="23.164" height="23.164" fill="none"/>
          <rect id="Rectangle_220" data-name="Rectangle 220" width="23.164" height="23.164" fill="none"/>
          <rect id="Rectangle_221" data-name="Rectangle 221" width="23.164" height="23.164" fill="none"/>
        </g>
        <g id="Layer_6" data-name="Layer 6" transform="translate(2.421 0.969)">
          <g id="Group_87" data-name="Group 87">
            <path id="Path_2447" data-name="Path 2447" d="M14.969,11.937h3.874a.969.969,0,1,0,0-1.937H14.969a.969.969,0,1,0,0,1.937Z" transform="translate(-9.642 -6.126)" fill="#fff"/>
            <path id="Path_2448" data-name="Path 2448" d="M14.969,19.937h3.874a.969.969,0,1,0,0-1.937H14.969a.969.969,0,1,0,0,1.937Z" transform="translate(-9.642 -10.252)" fill="#fff"/>
            <path id="Path_2449" data-name="Path 2449" d="M14.969,27.937h3.874a.969.969,0,0,0,0-1.937H14.969a.969.969,0,0,0,0,1.937Z" transform="translate(-9.642 -14.378)" fill="#fff"/>
            <path id="Path_2450" data-name="Path 2450" d="M28.969,11.937h.969a.969.969,0,1,0,0-1.937h-.969a.969.969,0,1,0,0,1.937Z" transform="translate(-16.862 -6.126)" fill="#fff"/>
            <path id="Path_2451" data-name="Path 2451" d="M28.969,19.937h.969a.969.969,0,1,0,0-1.937h-.969a.969.969,0,1,0,0,1.937Z" transform="translate(-16.862 -10.252)" fill="#fff"/>
            <path id="Path_2452" data-name="Path 2452" d="M28.969,27.937h.969a.969.969,0,1,0,0-1.937h-.969a.969.969,0,1,0,0,1.937Z" transform="translate(-16.862 -14.378)" fill="#fff"/>
            <path id="Path_2453" data-name="Path 2453" d="M22.433,2H5.969A.969.969,0,0,0,5,2.969V21.855a.484.484,0,0,0,.484.484.533.533,0,0,0,.339-.145l3.051-2.228,2.082,2.228a.484.484,0,0,0,.678,0L14.2,19.966l2.567,2.228a.484.484,0,0,0,.678,0l2.082-2.228,3.051,2.228a.533.533,0,0,0,.339.145.484.484,0,0,0,.484-.484V2.969A.969.969,0,0,0,22.433,2Zm-.969,17-.775-.581-1.4-1.017-1.162,1.259L17.01,19.821l-1.55-1.307L14.2,17.4l-1.259,1.114-1.55,1.307-1.114-1.162L9.116,17.4l-1.4,1.017L6.937,19V3.937H21.465Z" transform="translate(-5 -2)" fill="#fff"/>
          </g>
        </g>
      </g>
    </g>
    <g id="Group_215" data-name="Group 215" transform="translate(389.26 1725.441)">
      <path id="Path_2457" data-name="Path 2457" d="M4.671,0H43.6A4.671,4.671,0,0,1,48.27,4.671V43.6A4.671,4.671,0,0,1,43.6,48.27H4.671A4.671,4.671,0,0,1,0,43.6V4.671A4.671,4.671,0,0,1,4.671,0Z" transform="translate(0 0)" fill="#363636"/>
      <g id="Group_88" data-name="Group 88" transform="translate(10.311 11.447)">
        <path id="Path_2442-2" data-name="Path 2442" d="M27.869,28.154a2.918,2.918,0,0,0-2.538-.7l-6.281,1.079a2.982,2.982,0,0,0-.888-2.094L13.658,22H4.269a1.269,1.269,0,0,0,0,2.538h8.374l3.743,3.743a.508.508,0,0,1,0,.7.571.571,0,0,1-.761,0l-2.22-2.22a1.279,1.279,0,1,0-1.776,1.84l2.22,2.157a2.855,2.855,0,0,0,2.157.888,3.616,3.616,0,0,0,1.142-.19h0l8.628-1.523a.634.634,0,0,1,.508.127.7.7,0,0,1,.19.444.634.634,0,0,1-.508.634l-11.8,2.157L7.251,27.646H4.269a1.269,1.269,0,0,0,0,2.538H6.362L13.4,35.957,26.41,33.61a3.109,3.109,0,0,0,2.6-3.109,2.918,2.918,0,0,0-1.142-2.347Z" transform="translate(-3 -10.58)" fill="#fff"/>
        <g id="Layer_2-3" data-name="Layer 2" transform="translate(13.45)">
          <g id="invisible_box-3" data-name="invisible box" transform="translate(0)">
            <rect id="Rectangle_222" data-name="Rectangle 222" width="14.197" height="14.197" fill="none"/>
          </g>
          <g id="icons_Q2" data-name="icons Q2" transform="translate(0.457 1.75)">
            <path id="Path_2454" data-name="Path 2454" d="M14.253,6H2.583A.583.583,0,0,0,2,6.583v9.336a.583.583,0,0,0,.583.583h11.67a.583.583,0,0,0,.583-.583V6.583A.583.583,0,0,0,14.253,6Zm-.583,9.336H3.167V7.167h10.5Z" transform="translate(-2 -6)" fill="#fff"/>
            <circle id="Ellipse_146" data-name="Ellipse 146" cx="0.747" cy="0.747" r="0.747" transform="translate(1.786 1.238)" fill="#fff"/>
            <circle id="Ellipse_147" data-name="Ellipse 147" cx="0.747" cy="0.747" r="0.747" transform="translate(3.28 1.238)" fill="#fff"/>
            <circle id="Ellipse_148" data-name="Ellipse 148" cx="0.747" cy="0.747" r="0.747" transform="translate(4.775 1.238)" fill="#fff"/>
          </g>
        </g>
      </g>
    </g>
    <g id="Group_216" data-name="Group 216" transform="translate(479.032 1832.67)">
      <path id="Path_2460" data-name="Path 2460" d="M4.671,0H43.6A4.671,4.671,0,0,1,48.27,4.671V43.6A4.671,4.671,0,0,1,43.6,48.27H4.671A4.671,4.671,0,0,1,0,43.6V4.671A4.671,4.671,0,0,1,4.671,0Z" transform="translate(0 0)" fill="#363636"/>
      <path id="Icon_material-event-seat" data-name="Icon material-event-seat" d="M5.242,21.313v3.363H8.6V21.313H19.813v3.363h3.363V17.95H5.242Zm16.813-8.967h3.363v3.363H22.054ZM3,12.346H6.363v3.363H3Zm16.813,3.363H8.6V6.742A2.248,2.248,0,0,1,10.846,4.5h6.725a2.248,2.248,0,0,1,2.242,2.242Z" transform="translate(10.15 9.547)" fill="#fff"/>
    </g>
    <text id="sell_ticket" data-name="sell ticket" transform="translate(278.581 1769.347)" fill="#fff" font-size="18" font-family="Caros"><tspan x="-83.034" y="0">sell ticket</tspan></text>
    <text id="buy_ticket" data-name="buy ticket" transform="translate(453.477 1706.096)" fill="#fff" font-size="18" font-family="Caros"><tspan x="-86.553" y="0">buy ticket</tspan></text>
    <text id="seat_details" data-name="seat details" transform="translate(554 1820.349)" fill="#fff" font-size="18" font-family="Caros"><tspan x="-101.961" y="0">seat details</tspan></text>
    <text id="transactions" transform="translate(690.174 1863.52)" fill="#fff" font-size="18" font-family="Caros"><tspan x="-109.008" y="0">transactions</tspan></text>
    <text id="ticket_template" data-name="ticket template" transform="translate(827 1953.945)" fill="#fff" font-size="18" font-family="Caros"><tspan x="-134.82" y="0">ticket template</tspan></text>
  </g>
</svg>
