<svg xmlns="http://www.w3.org/2000/svg" width="235" height="82" viewBox="0 0 235 82">
  <g id="Group_244" data-name="Group 244" transform="translate(-139 -38)">
    <text id="it_s_time_to_save_more....." data-name="it&apos;s time to save more....." transform="translate(374 116)" font-size="11" font-family="Poppins-Regular, Poppins" opacity="0.93"><tspan x="-128.865" y="0">it&apos;s time to save more.....</tspan></text>
    <g id="Group_182" data-name="Group 182" transform="translate(-265 -355)">
      <g id="Group_170" data-name="Group 170" transform="translate(405 395)">
        <text id="T" transform="translate(32 58)" fill="#363636" font-size="57" font-family="Poppins-MediumItalic, Poppins" font-weight="500" font-style="italic"><tspan x="-32.148" y="0">T</tspan></text>
        <text id="i" transform="translate(37.896 58.378)" fill="#363636" font-size="39" font-family="Poppins-MediumItalic, Poppins" font-weight="500" font-style="italic"><tspan x="-10.296" y="0">i</tspan></text>
        <text id="r" transform="translate(102.973 58.576)" fill="#363636" font-size="44" font-family="Poppins-MediumItalic, Poppins" font-weight="500" font-style="italic"><tspan x="-16.896" y="0">r</tspan></text>
        <text id="e" transform="translate(129 59)" fill="#363636" font-size="44" font-family="Poppins-MediumItalic, Poppins" font-weight="500" font-style="italic"><tspan x="-27.148" y="0">e</tspan></text>
        <text id="t-2" data-name="t" transform="translate(144.723 58.576)" fill="#363636" font-size="44" font-family="Poppins-MediumItalic, Poppins" font-weight="500" font-style="italic"><tspan x="-16.368" y="0">t</tspan></text>
        <circle id="Ellipse_7" data-name="Ellipse 7" cx="2.515" cy="2.515" r="2.515" transform="translate(142.585 18.165) rotate(-9)" fill="#a7512d"/>
        <circle id="Ellipse_6" data-name="Ellipse 6" cx="2.515" cy="2.515" r="2.515" transform="translate(148.341 22.346) rotate(-9)" fill="#a7512d"/>
      </g>
      <g id="Group_171" data-name="Group 171" transform="translate(449.2 419.428)">
        <path id="Path_3781" data-name="Path 3781" d="M769.358,483.1s-4.5-.973-6.966.815-3.206,13.325.36,16.651a9.378,9.378,0,0,0,12.164,0c2.71-2.632,16.209-30.422,16.737-30.791s2.794-.95,4.061,0,1.588,31.567,1.588,31.567" transform="translate(-760.307 -469.261)" fill="none" stroke="#df0b0b" stroke-linecap="round" stroke-width="4"/>
        <path id="Path_3782" data-name="Path 3782" d="M2845.693-665.811c-.632-.158-6.09,0-6.09,0" transform="translate(-2809.582 681.467)" fill="none" stroke="#df0b0b" stroke-linecap="round" stroke-width="4"/>
      </g>
    </g>
  </g>
</svg>
